<svg width="260" height="77" viewBox="0 0 260 77" fill="none" xmlns="http://www.w3.org/2000/svg">
<path fill-rule="evenodd" clip-rule="evenodd" d="M32.7752 29.0787C39.3761 24.4318 39.3589 16.5075 39.3589 16.5075V0.223389H31.1465C31.1465 0.223389 31.2953 12.2016 31.1465 16.5361C31.1095 19.0243 29.8642 21.3385 27.8088 22.7387C27.8088 22.7387 24.5456 25.1481 17.9477 23.091C11.3497 21.034 5.67629 18.9713 5.67629 18.9713L3.11725 26.9587L17.67 31.68C17.67 31.68 26.6037 34.29 32.7752 29.0787Z" fill="url(#paint0_linear_1681_2578)"/>
<path fill-rule="evenodd" clip-rule="evenodd" d="M48.2697 28.9126C54.7074 33.7829 62.2385 31.3392 62.2385 31.3392L77.7216 26.3714L75.2169 18.5531C75.2169 18.5531 63.8587 22.352 59.6966 23.5323C57.3174 24.256 54.735 23.775 52.7752 22.2431C52.7752 22.2431 49.4862 19.871 49.4318 12.9522C49.3775 6.03349 49.6036 0 49.6036 0H41.2223L41.1736 15.3272C41.1736 15.3272 41.417 24.6238 48.2697 28.9126Z" fill="url(#paint1_linear_1681_2578)"/>
<path fill-rule="evenodd" clip-rule="evenodd" d="M60.5382 46.168C60.5382 46.168 61.7949 42.3089 68.3642 40.1517C74.9336 37.9944 80.7472 36.3757 80.7472 36.3757L78.1996 28.3855L63.6011 32.998C63.6011 32.998 54.8104 36.0634 52.8153 43.9018C50.136 51.5196 54.7532 57.957 54.7532 57.957L64.1993 71.2072L70.8803 66.44C70.8803 66.44 63.8072 56.7738 61.417 53.1583C60.0032 51.1108 59.6752 48.5022 60.5382 46.168Z" fill="url(#paint2_linear_1681_2578)"/>
<path fill-rule="evenodd" clip-rule="evenodd" d="M40.3006 52.76C32.2342 52.5766 27.5512 58.9653 27.5512 58.9653L17.8961 72.0522L24.4998 76.9226C24.4998 76.9226 31.4842 67.1819 34.1778 63.7984C35.6822 61.8175 38.0569 60.6949 40.5411 60.7903C42.8685 60.7903 44.5972 60.7903 48.6848 66.3682C52.7724 71.9462 56.1272 76.9684 56.1272 76.9684L62.9226 72.0637L54.0147 59.6157C54.0147 59.6157 48.3642 52.2242 40.3006 52.76Z" fill="url(#paint3_linear_1681_2578)"/>
<path fill-rule="evenodd" clip-rule="evenodd" d="M27.7916 43.8673C25.5332 36.1149 18.0335 33.5795 18.0335 33.5795L2.6535 28.3167L0 36.0891C0 36.0891 11.3754 39.8135 15.4229 41.3606C17.7614 42.198 19.5468 44.1216 20.209 46.5174C20.209 46.5174 21.4341 50.385 17.3465 55.9716C13.2589 61.5581 9.4862 66.2623 9.4862 66.2623L16.2101 71.2673L25.37 59.0112C25.37 59.0112 30.7428 51.402 27.7916 43.8673Z" fill="url(#paint4_linear_1681_2578)"/>
<path fill-rule="evenodd" clip-rule="evenodd" d="M40.1003 52.3259C46.7875 52.3259 52.2086 46.9048 52.2086 40.2176C52.2086 33.5304 46.7875 28.1094 40.1003 28.1094C33.4131 28.1094 27.9921 33.5304 27.9921 40.2176C27.9921 46.9048 33.4131 52.3259 40.1003 52.3259Z" fill="url(#paint5_linear_1681_2578)"/>
<path fill-rule="evenodd" clip-rule="evenodd" d="M49.9214 36.4014H42.5877L40.4037 29.9153L38.2196 36.4014H30.886L36.5479 40.567L34.57 47.2938L40.4037 43.3345L46.2374 47.2938L44.2594 40.567L49.9214 36.4014Z" fill="url(#paint6_linear_1681_2578)"/>
<path d="M107.365 24H104.221L102.971 20.748H97.248L96.0664 24H93L98.5762 9.68359H101.633L107.365 24ZM102.043 18.3359L100.07 13.0234L98.1367 18.3359H102.043ZM108.922 21.041L111.676 20.6211C111.793 21.1549 112.031 21.5618 112.389 21.8418C112.747 22.1152 113.248 22.252 113.893 22.252C114.602 22.252 115.136 22.1217 115.494 21.8613C115.735 21.679 115.855 21.4349 115.855 21.1289C115.855 20.9206 115.79 20.748 115.66 20.6113C115.523 20.4811 115.217 20.3607 114.742 20.25C112.529 19.7617 111.126 19.3158 110.533 18.9121C109.713 18.3522 109.303 17.5742 109.303 16.5781C109.303 15.6797 109.658 14.9245 110.367 14.3125C111.077 13.7005 112.177 13.3945 113.668 13.3945C115.087 13.3945 116.142 13.6257 116.832 14.0879C117.522 14.5501 117.997 15.2337 118.258 16.1387L115.67 16.6172C115.559 16.2135 115.348 15.9043 115.035 15.6895C114.729 15.4746 114.29 15.3672 113.717 15.3672C112.994 15.3672 112.477 15.4681 112.164 15.6699C111.956 15.8132 111.852 15.9987 111.852 16.2266C111.852 16.4219 111.943 16.5879 112.125 16.7246C112.372 16.9069 113.225 17.1641 114.684 17.4961C116.148 17.8281 117.171 18.235 117.75 18.7168C118.323 19.2051 118.609 19.8854 118.609 20.7578C118.609 21.7083 118.212 22.5254 117.418 23.209C116.624 23.8926 115.449 24.2344 113.893 24.2344C112.48 24.2344 111.36 23.9479 110.533 23.375C109.713 22.8021 109.176 22.0241 108.922 21.041ZM121.055 21.041L123.809 20.6211C123.926 21.1549 124.163 21.5618 124.521 21.8418C124.88 22.1152 125.381 22.252 126.025 22.252C126.735 22.252 127.269 22.1217 127.627 21.8613C127.868 21.679 127.988 21.4349 127.988 21.1289C127.988 20.9206 127.923 20.748 127.793 20.6113C127.656 20.4811 127.35 20.3607 126.875 20.25C124.661 19.7617 123.258 19.3158 122.666 18.9121C121.846 18.3522 121.436 17.5742 121.436 16.5781C121.436 15.6797 121.79 14.9245 122.5 14.3125C123.21 13.7005 124.31 13.3945 125.801 13.3945C127.22 13.3945 128.275 13.6257 128.965 14.0879C129.655 14.5501 130.13 15.2337 130.391 16.1387L127.803 16.6172C127.692 16.2135 127.48 15.9043 127.168 15.6895C126.862 15.4746 126.423 15.3672 125.85 15.3672C125.127 15.3672 124.609 15.4681 124.297 15.6699C124.089 15.8132 123.984 15.9987 123.984 16.2266C123.984 16.4219 124.076 16.5879 124.258 16.7246C124.505 16.9069 125.358 17.1641 126.816 17.4961C128.281 17.8281 129.303 18.235 129.883 18.7168C130.456 19.2051 130.742 19.8854 130.742 20.7578C130.742 21.7083 130.345 22.5254 129.551 23.209C128.757 23.8926 127.581 24.2344 126.025 24.2344C124.613 24.2344 123.493 23.9479 122.666 23.375C121.846 22.8021 121.309 22.0241 121.055 21.041ZM133.52 18.668C133.52 17.7565 133.744 16.8743 134.193 16.0215C134.643 15.1686 135.277 14.5176 136.098 14.0684C136.924 13.6191 137.846 13.3945 138.861 13.3945C140.43 13.3945 141.716 13.9056 142.719 14.9277C143.721 15.9434 144.223 17.2292 144.223 18.7852C144.223 20.3542 143.715 21.6562 142.699 22.6914C141.69 23.7201 140.417 24.2344 138.881 24.2344C137.93 24.2344 137.022 24.0195 136.156 23.5898C135.297 23.1602 134.643 22.5319 134.193 21.7051C133.744 20.8717 133.52 19.8594 133.52 18.668ZM136.332 18.8145C136.332 19.8431 136.576 20.6309 137.064 21.1777C137.553 21.7246 138.155 21.998 138.871 21.998C139.587 21.998 140.186 21.7246 140.668 21.1777C141.156 20.6309 141.4 19.8366 141.4 18.7949C141.4 17.7793 141.156 16.998 140.668 16.4512C140.186 15.9043 139.587 15.6309 138.871 15.6309C138.155 15.6309 137.553 15.9043 137.064 16.4512C136.576 16.998 136.332 17.7858 136.332 18.8145ZM156.424 16.6953L153.719 17.1836C153.628 16.6432 153.419 16.2363 153.094 15.9629C152.775 15.6895 152.358 15.5527 151.844 15.5527C151.16 15.5527 150.613 15.7904 150.203 16.2656C149.799 16.7344 149.598 17.5221 149.598 18.6289C149.598 19.8594 149.803 20.7285 150.213 21.2363C150.63 21.7441 151.186 21.998 151.883 21.998C152.404 21.998 152.83 21.8516 153.162 21.5586C153.494 21.2591 153.729 20.748 153.865 20.0254L156.561 20.4844C156.281 21.7214 155.743 22.6556 154.949 23.2871C154.155 23.9186 153.09 24.2344 151.756 24.2344C150.239 24.2344 149.028 23.7559 148.123 22.7988C147.225 21.8418 146.775 20.5169 146.775 18.8242C146.775 17.112 147.228 15.7806 148.133 14.8301C149.038 13.873 150.262 13.3945 151.805 13.3945C153.068 13.3945 154.07 13.668 154.812 14.2148C155.561 14.7552 156.098 15.582 156.424 16.6953ZM159.514 12.2227V9.68359H162.258V12.2227H159.514ZM159.514 24V13.6289H162.258V24H159.514ZM168.131 16.793L165.641 16.3438C165.921 15.3411 166.402 14.599 167.086 14.1172C167.77 13.6354 168.785 13.3945 170.133 13.3945C171.357 13.3945 172.268 13.541 172.867 13.834C173.466 14.1204 173.886 14.4883 174.127 14.9375C174.374 15.3802 174.498 16.1973 174.498 17.3887L174.469 20.5918C174.469 21.5033 174.511 22.1771 174.596 22.6133C174.687 23.043 174.853 23.5052 175.094 24H172.379C172.307 23.8177 172.219 23.5475 172.115 23.1895C172.07 23.0267 172.037 22.9193 172.018 22.8672C171.549 23.3229 171.048 23.6647 170.514 23.8926C169.98 24.1204 169.41 24.2344 168.805 24.2344C167.737 24.2344 166.894 23.9447 166.275 23.3652C165.663 22.7858 165.357 22.0534 165.357 21.168C165.357 20.582 165.497 20.0612 165.777 19.6055C166.057 19.1432 166.448 18.7917 166.949 18.5508C167.457 18.3034 168.186 18.0885 169.137 17.9062C170.419 17.6654 171.308 17.4408 171.803 17.2324V16.959C171.803 16.4316 171.673 16.0573 171.412 15.8359C171.152 15.6081 170.66 15.4941 169.938 15.4941C169.449 15.4941 169.068 15.5918 168.795 15.7871C168.521 15.9759 168.3 16.3112 168.131 16.793ZM171.803 19.0195C171.451 19.1367 170.895 19.2767 170.133 19.4395C169.371 19.6022 168.873 19.7617 168.639 19.918C168.281 20.1719 168.102 20.4941 168.102 20.8848C168.102 21.2689 168.245 21.6009 168.531 21.8809C168.818 22.1608 169.182 22.3008 169.625 22.3008C170.12 22.3008 170.592 22.138 171.041 21.8125C171.373 21.5651 171.591 21.2624 171.695 20.9043C171.767 20.6699 171.803 20.224 171.803 19.5664V19.0195ZM187.256 16.6953L184.551 17.1836C184.46 16.6432 184.251 16.2363 183.926 15.9629C183.607 15.6895 183.19 15.5527 182.676 15.5527C181.992 15.5527 181.445 15.7904 181.035 16.2656C180.632 16.7344 180.43 17.5221 180.43 18.6289C180.43 19.8594 180.635 20.7285 181.045 21.2363C181.462 21.7441 182.018 21.998 182.715 21.998C183.236 21.998 183.662 21.8516 183.994 21.5586C184.326 21.2591 184.561 20.748 184.697 20.0254L187.393 20.4844C187.113 21.7214 186.576 22.6556 185.781 23.2871C184.987 23.9186 183.923 24.2344 182.588 24.2344C181.071 24.2344 179.86 23.7559 178.955 22.7988C178.057 21.8418 177.607 20.5169 177.607 18.8242C177.607 17.112 178.06 15.7806 178.965 14.8301C179.87 13.873 181.094 13.3945 182.637 13.3945C183.9 13.3945 184.902 13.668 185.645 14.2148C186.393 14.7552 186.93 15.582 187.256 16.6953ZM179.863 27.9355V26.7832C180.534 26.8548 181.149 26.8906 181.709 26.8906C182.288 26.8906 182.718 26.7865 182.998 26.5781C183.213 26.4219 183.32 26.2201 183.32 25.9727C183.32 25.7513 183.219 25.5592 183.018 25.3965C182.816 25.2337 182.503 25.1523 182.08 25.1523C181.663 25.1523 181.237 25.2174 180.801 25.3477L181.055 24.3809C181.562 24.2051 182.109 24.1172 182.695 24.1172C183.509 24.1172 184.128 24.2962 184.551 24.6543C184.974 25.0124 185.186 25.4486 185.186 25.9629C185.186 26.5358 184.951 27.0013 184.482 27.3594C183.851 27.8477 182.946 28.0918 181.768 28.0918C180.928 28.0918 180.293 28.0397 179.863 27.9355ZM192.396 16.793L189.906 16.3438C190.186 15.3411 190.668 14.599 191.352 14.1172C192.035 13.6354 193.051 13.3945 194.398 13.3945C195.622 13.3945 196.534 13.541 197.133 13.834C197.732 14.1204 198.152 14.4883 198.393 14.9375C198.64 15.3802 198.764 16.1973 198.764 17.3887L198.734 20.5918C198.734 21.5033 198.777 22.1771 198.861 22.6133C198.952 23.043 199.118 23.5052 199.359 24H196.645C196.573 23.8177 196.485 23.5475 196.381 23.1895C196.335 23.0267 196.303 22.9193 196.283 22.8672C195.814 23.3229 195.313 23.6647 194.779 23.8926C194.245 24.1204 193.676 24.2344 193.07 24.2344C192.003 24.2344 191.16 23.9447 190.541 23.3652C189.929 22.7858 189.623 22.0534 189.623 21.168C189.623 20.582 189.763 20.0612 190.043 19.6055C190.323 19.1432 190.714 18.7917 191.215 18.5508C191.723 18.3034 192.452 18.0885 193.402 17.9062C194.685 17.6654 195.574 17.4408 196.068 17.2324V16.959C196.068 16.4316 195.938 16.0573 195.678 15.8359C195.417 15.6081 194.926 15.4941 194.203 15.4941C193.715 15.4941 193.334 15.5918 193.061 15.7871C192.787 15.9759 192.566 16.3112 192.396 16.793ZM196.068 19.0195C195.717 19.1367 195.16 19.2767 194.398 19.4395C193.637 19.6022 193.139 19.7617 192.904 19.918C192.546 20.1719 192.367 20.4941 192.367 20.8848C192.367 21.2689 192.51 21.6009 192.797 21.8809C193.083 22.1608 193.448 22.3008 193.891 22.3008C194.385 22.3008 194.857 22.138 195.307 21.8125C195.639 21.5651 195.857 21.2624 195.961 20.9043C196.033 20.6699 196.068 20.224 196.068 19.5664V19.0195ZM192.377 12.2324H191.127C191.12 12.0827 191.117 11.9655 191.117 11.8809C191.117 11.1973 191.283 10.6732 191.615 10.3086C191.947 9.9375 192.374 9.75195 192.895 9.75195C193.122 9.75195 193.334 9.77799 193.529 9.83008C193.725 9.87565 194.079 10.0156 194.594 10.25C195.115 10.4779 195.521 10.5918 195.814 10.5918C196.023 10.5918 196.195 10.5267 196.332 10.3965C196.475 10.2663 196.566 10.0482 196.605 9.74219H197.875C197.868 10.6211 197.702 11.2493 197.377 11.627C197.058 12.0046 196.645 12.1934 196.137 12.1934C195.915 12.1934 195.697 12.1706 195.482 12.125C195.333 12.0859 194.958 11.9525 194.359 11.7246C193.76 11.4967 193.324 11.3828 193.051 11.3828C192.842 11.3828 192.68 11.4479 192.562 11.5781C192.445 11.7018 192.383 11.9199 192.377 12.2324ZM201.844 18.668C201.844 17.7565 202.068 16.8743 202.518 16.0215C202.967 15.1686 203.602 14.5176 204.422 14.0684C205.249 13.6191 206.17 13.3945 207.186 13.3945C208.755 13.3945 210.04 13.9056 211.043 14.9277C212.046 15.9434 212.547 17.2292 212.547 18.7852C212.547 20.3542 212.039 21.6562 211.023 22.6914C210.014 23.7201 208.742 24.2344 207.205 24.2344C206.255 24.2344 205.346 24.0195 204.48 23.5898C203.621 23.1602 202.967 22.5319 202.518 21.7051C202.068 20.8717 201.844 19.8594 201.844 18.668ZM204.656 18.8145C204.656 19.8431 204.9 20.6309 205.389 21.1777C205.877 21.7246 206.479 21.998 207.195 21.998C207.911 21.998 208.51 21.7246 208.992 21.1777C209.48 20.6309 209.725 19.8366 209.725 18.7949C209.725 17.7793 209.48 16.998 208.992 16.4512C208.51 15.9043 207.911 15.6309 207.195 15.6309C206.479 15.6309 205.877 15.9043 205.389 16.4512C204.9 16.998 204.656 17.7858 204.656 18.8145ZM94.416 47V32.6836H98.7422L101.34 42.4492L103.908 32.6836H108.244V47H105.559V35.7305L102.717 47H99.9336L97.1016 35.7305V47H94.416ZM114.146 39.793L111.656 39.3438C111.936 38.3411 112.418 37.599 113.102 37.1172C113.785 36.6354 114.801 36.3945 116.148 36.3945C117.372 36.3945 118.284 36.541 118.883 36.834C119.482 37.1204 119.902 37.4883 120.143 37.9375C120.39 38.3802 120.514 39.1973 120.514 40.3887L120.484 43.5918C120.484 44.5033 120.527 45.1771 120.611 45.6133C120.702 46.043 120.868 46.5052 121.109 47H118.395C118.323 46.8177 118.235 46.5475 118.131 46.1895C118.085 46.0267 118.053 45.9193 118.033 45.8672C117.564 46.3229 117.063 46.6647 116.529 46.8926C115.995 47.1204 115.426 47.2344 114.82 47.2344C113.753 47.2344 112.91 46.9447 112.291 46.3652C111.679 45.7858 111.373 45.0534 111.373 44.168C111.373 43.582 111.513 43.0612 111.793 42.6055C112.073 42.1432 112.464 41.7917 112.965 41.5508C113.473 41.3034 114.202 41.0885 115.152 40.9062C116.435 40.6654 117.324 40.4408 117.818 40.2324V39.959C117.818 39.4316 117.688 39.0573 117.428 38.8359C117.167 38.6081 116.676 38.4941 115.953 38.4941C115.465 38.4941 115.084 38.5918 114.811 38.7871C114.537 38.9759 114.316 39.3112 114.146 39.793ZM117.818 42.0195C117.467 42.1367 116.91 42.2767 116.148 42.4395C115.387 42.6022 114.889 42.7617 114.654 42.918C114.296 43.1719 114.117 43.4941 114.117 43.8848C114.117 44.2689 114.26 44.6009 114.547 44.8809C114.833 45.1608 115.198 45.3008 115.641 45.3008C116.135 45.3008 116.607 45.138 117.057 44.8125C117.389 44.5651 117.607 44.2624 117.711 43.9043C117.783 43.6699 117.818 43.224 117.818 42.5664V42.0195ZM128.984 36.6289V38.8164H127.109V42.9961C127.109 43.8424 127.126 44.3372 127.158 44.4805C127.197 44.6172 127.279 44.7311 127.402 44.8223C127.533 44.9134 127.689 44.959 127.871 44.959C128.125 44.959 128.493 44.8711 128.975 44.6953L129.209 46.8242C128.571 47.0977 127.848 47.2344 127.041 47.2344C126.546 47.2344 126.1 47.153 125.703 46.9902C125.306 46.821 125.013 46.6061 124.824 46.3457C124.642 46.0788 124.515 45.7207 124.443 45.2715C124.385 44.9525 124.355 44.3079 124.355 43.3379V38.8164H123.096V36.6289H124.355V34.5684L127.109 32.9668V36.6289H128.984ZM131.254 41.668C131.254 40.7565 131.479 39.8743 131.928 39.0215C132.377 38.1686 133.012 37.5176 133.832 37.0684C134.659 36.6191 135.58 36.3945 136.596 36.3945C138.165 36.3945 139.451 36.9056 140.453 37.9277C141.456 38.9434 141.957 40.2292 141.957 41.7852C141.957 43.3542 141.449 44.6562 140.434 45.6914C139.424 46.7201 138.152 47.2344 136.615 47.2344C135.665 47.2344 134.757 47.0195 133.891 46.5898C133.031 46.1602 132.377 45.5319 131.928 44.7051C131.479 43.8717 131.254 42.8594 131.254 41.668ZM134.066 41.8145C134.066 42.8431 134.311 43.6309 134.799 44.1777C135.287 44.7246 135.889 44.998 136.605 44.998C137.322 44.998 137.921 44.7246 138.402 44.1777C138.891 43.6309 139.135 42.8366 139.135 41.7949C139.135 40.7793 138.891 39.998 138.402 39.4512C137.921 38.9043 137.322 38.6309 136.605 38.6309C135.889 38.6309 135.287 38.9043 134.799 39.4512C134.311 39.998 134.066 40.7858 134.066 41.8145ZM144.803 43.1816V40.4375H150.193V43.1816H144.803ZM152.521 47.6836L155.656 48.0645C155.708 48.429 155.829 48.6797 156.018 48.8164C156.278 49.0117 156.688 49.1094 157.248 49.1094C157.964 49.1094 158.501 49.002 158.859 48.7871C159.1 48.6439 159.283 48.4128 159.406 48.0938C159.491 47.8659 159.533 47.446 159.533 46.834V45.3203C158.713 46.4401 157.678 47 156.428 47C155.035 47 153.931 46.4108 153.117 45.2324C152.479 44.3014 152.16 43.1426 152.16 41.7559C152.16 40.0176 152.577 38.6895 153.41 37.7715C154.25 36.8535 155.292 36.3945 156.535 36.3945C157.818 36.3945 158.876 36.9577 159.709 38.084V36.6289H162.277V45.9355C162.277 47.1595 162.176 48.0742 161.975 48.6797C161.773 49.2852 161.49 49.7604 161.125 50.1055C160.76 50.4505 160.272 50.7207 159.66 50.916C159.055 51.1113 158.286 51.209 157.355 51.209C155.598 51.209 154.351 50.9062 153.615 50.3008C152.88 49.7018 152.512 48.9401 152.512 48.0156C152.512 47.9245 152.515 47.8138 152.521 47.6836ZM154.973 41.5996C154.973 42.6999 155.184 43.5072 155.607 44.0215C156.037 44.5293 156.564 44.7832 157.189 44.7832C157.86 44.7832 158.426 44.5228 158.889 44.002C159.351 43.4746 159.582 42.6966 159.582 41.668C159.582 40.5938 159.361 39.7962 158.918 39.2754C158.475 38.7546 157.915 38.4941 157.238 38.4941C156.581 38.4941 156.037 38.7513 155.607 39.2656C155.184 39.7734 154.973 40.5514 154.973 41.5996ZM168.629 47H165.885V36.6289H168.434V38.1035C168.87 37.4069 169.26 36.9479 169.605 36.7266C169.957 36.5052 170.354 36.3945 170.797 36.3945C171.422 36.3945 172.024 36.5671 172.604 36.9121L171.754 39.3047C171.292 39.0052 170.862 38.8555 170.465 38.8555C170.081 38.8555 169.755 38.9629 169.488 39.1777C169.221 39.3861 169.01 39.7669 168.854 40.3203C168.704 40.8737 168.629 42.0326 168.629 43.7969V47ZM174.16 41.668C174.16 40.7565 174.385 39.8743 174.834 39.0215C175.283 38.1686 175.918 37.5176 176.738 37.0684C177.565 36.6191 178.486 36.3945 179.502 36.3945C181.071 36.3945 182.357 36.9056 183.359 37.9277C184.362 38.9434 184.863 40.2292 184.863 41.7852C184.863 43.3542 184.355 44.6562 183.34 45.6914C182.331 46.7201 181.058 47.2344 179.521 47.2344C178.571 47.2344 177.663 47.0195 176.797 46.5898C175.938 46.1602 175.283 45.5319 174.834 44.7051C174.385 43.8717 174.16 42.8594 174.16 41.668ZM176.973 41.8145C176.973 42.8431 177.217 43.6309 177.705 44.1777C178.193 44.7246 178.796 44.998 179.512 44.998C180.228 44.998 180.827 44.7246 181.309 44.1777C181.797 43.6309 182.041 42.8366 182.041 41.7949C182.041 40.7793 181.797 39.998 181.309 39.4512C180.827 38.9043 180.228 38.6309 179.512 38.6309C178.796 38.6309 178.193 38.9043 177.705 39.4512C177.217 39.998 176.973 40.7858 176.973 41.8145ZM187.055 44.041L189.809 43.6211C189.926 44.1549 190.163 44.5618 190.521 44.8418C190.88 45.1152 191.381 45.252 192.025 45.252C192.735 45.252 193.269 45.1217 193.627 44.8613C193.868 44.679 193.988 44.4349 193.988 44.1289C193.988 43.9206 193.923 43.748 193.793 43.6113C193.656 43.4811 193.35 43.3607 192.875 43.25C190.661 42.7617 189.258 42.3158 188.666 41.9121C187.846 41.3522 187.436 40.5742 187.436 39.5781C187.436 38.6797 187.79 37.9245 188.5 37.3125C189.21 36.7005 190.31 36.3945 191.801 36.3945C193.22 36.3945 194.275 36.6257 194.965 37.0879C195.655 37.5501 196.13 38.2337 196.391 39.1387L193.803 39.6172C193.692 39.2135 193.48 38.9043 193.168 38.6895C192.862 38.4746 192.423 38.3672 191.85 38.3672C191.127 38.3672 190.609 38.4681 190.297 38.6699C190.089 38.8132 189.984 38.9987 189.984 39.2266C189.984 39.4219 190.076 39.5879 190.258 39.7246C190.505 39.9069 191.358 40.1641 192.816 40.4961C194.281 40.8281 195.303 41.235 195.883 41.7168C196.456 42.2051 196.742 42.8854 196.742 43.7578C196.742 44.7083 196.345 45.5254 195.551 46.209C194.757 46.8926 193.581 47.2344 192.025 47.2344C190.613 47.2344 189.493 46.9479 188.666 46.375C187.846 45.8021 187.309 45.0241 187.055 44.041ZM199.188 44.041L201.941 43.6211C202.059 44.1549 202.296 44.5618 202.654 44.8418C203.012 45.1152 203.514 45.252 204.158 45.252C204.868 45.252 205.402 45.1217 205.76 44.8613C206.001 44.679 206.121 44.4349 206.121 44.1289C206.121 43.9206 206.056 43.748 205.926 43.6113C205.789 43.4811 205.483 43.3607 205.008 43.25C202.794 42.7617 201.391 42.3158 200.799 41.9121C199.979 41.3522 199.568 40.5742 199.568 39.5781C199.568 38.6797 199.923 37.9245 200.633 37.3125C201.342 36.7005 202.443 36.3945 203.934 36.3945C205.353 36.3945 206.408 36.6257 207.098 37.0879C207.788 37.5501 208.263 38.2337 208.523 39.1387L205.936 39.6172C205.825 39.2135 205.613 38.9043 205.301 38.6895C204.995 38.4746 204.555 38.3672 203.982 38.3672C203.26 38.3672 202.742 38.4681 202.43 38.6699C202.221 38.8132 202.117 38.9987 202.117 39.2266C202.117 39.4219 202.208 39.5879 202.391 39.7246C202.638 39.9069 203.491 40.1641 204.949 40.4961C206.414 40.8281 207.436 41.235 208.016 41.7168C208.589 42.2051 208.875 42.8854 208.875 43.7578C208.875 44.7083 208.478 45.5254 207.684 46.209C206.889 46.8926 205.714 47.2344 204.158 47.2344C202.745 47.2344 201.626 46.9479 200.799 46.375C199.979 45.8021 199.441 45.0241 199.188 44.041ZM218.293 43.6992L221.027 44.1582C220.676 45.1608 220.119 45.9258 219.357 46.4531C218.602 46.974 217.655 47.2344 216.516 47.2344C214.712 47.2344 213.378 46.6452 212.512 45.4668C211.828 44.5228 211.486 43.3314 211.486 41.8926C211.486 40.1738 211.936 38.8294 212.834 37.8594C213.732 36.8828 214.868 36.3945 216.242 36.3945C217.785 36.3945 219.003 36.9056 219.895 37.9277C220.786 38.9434 221.213 40.5026 221.174 42.6055H214.299C214.318 43.4193 214.54 44.054 214.963 44.5098C215.386 44.959 215.913 45.1836 216.545 45.1836C216.975 45.1836 217.336 45.0664 217.629 44.832C217.922 44.5977 218.143 44.2201 218.293 43.6992ZM218.449 40.9258C218.43 40.1315 218.225 39.5293 217.834 39.1191C217.443 38.7025 216.968 38.4941 216.408 38.4941C215.809 38.4941 215.314 38.7122 214.924 39.1484C214.533 39.5846 214.341 40.1771 214.348 40.9258H218.449ZM233.854 47H231.109V41.707C231.109 40.5872 231.051 39.8646 230.934 39.5391C230.816 39.207 230.624 38.9499 230.357 38.7676C230.097 38.5853 229.781 38.4941 229.41 38.4941C228.935 38.4941 228.508 38.6243 228.131 38.8848C227.753 39.1452 227.493 39.4902 227.35 39.9199C227.213 40.3496 227.145 41.1439 227.145 42.3027V47H224.4V36.6289H226.949V38.1523C227.854 36.9805 228.993 36.3945 230.367 36.3945C230.973 36.3945 231.526 36.5052 232.027 36.7266C232.529 36.9414 232.906 37.2181 233.16 37.5566C233.421 37.8952 233.6 38.2793 233.697 38.709C233.801 39.1387 233.854 39.7539 233.854 40.5547V47ZM236.68 44.041L239.434 43.6211C239.551 44.1549 239.788 44.5618 240.146 44.8418C240.505 45.1152 241.006 45.252 241.65 45.252C242.36 45.252 242.894 45.1217 243.252 44.8613C243.493 44.679 243.613 44.4349 243.613 44.1289C243.613 43.9206 243.548 43.748 243.418 43.6113C243.281 43.4811 242.975 43.3607 242.5 43.25C240.286 42.7617 238.883 42.3158 238.291 41.9121C237.471 41.3522 237.061 40.5742 237.061 39.5781C237.061 38.6797 237.415 37.9245 238.125 37.3125C238.835 36.7005 239.935 36.3945 241.426 36.3945C242.845 36.3945 243.9 36.6257 244.59 37.0879C245.28 37.5501 245.755 38.2337 246.016 39.1387L243.428 39.6172C243.317 39.2135 243.105 38.9043 242.793 38.6895C242.487 38.4746 242.048 38.3672 241.475 38.3672C240.752 38.3672 240.234 38.4681 239.922 38.6699C239.714 38.8132 239.609 38.9987 239.609 39.2266C239.609 39.4219 239.701 39.5879 239.883 39.7246C240.13 39.9069 240.983 40.1641 242.441 40.4961C243.906 40.8281 244.928 41.235 245.508 41.7168C246.081 42.2051 246.367 42.8854 246.367 43.7578C246.367 44.7083 245.97 45.5254 245.176 46.209C244.382 46.8926 243.206 47.2344 241.65 47.2344C240.238 47.2344 239.118 46.9479 238.291 46.375C237.471 45.8021 236.934 45.0241 236.68 44.041ZM255.785 43.6992L258.52 44.1582C258.168 45.1608 257.611 45.9258 256.85 46.4531C256.094 46.974 255.147 47.2344 254.008 47.2344C252.204 47.2344 250.87 46.6452 250.004 45.4668C249.32 44.5228 248.979 43.3314 248.979 41.8926C248.979 40.1738 249.428 38.8294 250.326 37.8594C251.225 36.8828 252.361 36.3945 253.734 36.3945C255.277 36.3945 256.495 36.9056 257.387 37.9277C258.279 38.9434 258.705 40.5026 258.666 42.6055H251.791C251.811 43.4193 252.032 44.054 252.455 44.5098C252.878 44.959 253.406 45.1836 254.037 45.1836C254.467 45.1836 254.828 45.0664 255.121 44.832C255.414 44.5977 255.635 44.2201 255.785 43.6992ZM255.941 40.9258C255.922 40.1315 255.717 39.5293 255.326 39.1191C254.936 38.7025 254.46 38.4941 253.9 38.4941C253.301 38.4941 252.807 38.7122 252.416 39.1484C252.025 39.5846 251.833 40.1771 251.84 40.9258H255.941ZM103.947 70H101.398V68.4766C100.975 69.069 100.474 69.5117 99.8945 69.8047C99.3216 70.0911 98.7422 70.2344 98.1562 70.2344C96.9648 70.2344 95.9427 69.7559 95.0898 68.7988C94.2435 67.8353 93.8203 66.4941 93.8203 64.7754C93.8203 63.0176 94.2337 61.6829 95.0605 60.7715C95.8874 59.8535 96.9323 59.3945 98.1953 59.3945C99.3542 59.3945 100.357 59.8763 101.203 60.8398V55.6836H103.947V70ZM96.623 64.5898C96.623 65.6966 96.776 66.4974 97.082 66.9922C97.5247 67.7083 98.1432 68.0664 98.9375 68.0664C99.569 68.0664 100.106 67.7995 100.549 67.2656C100.992 66.7253 101.213 65.9212 101.213 64.8535C101.213 63.6621 100.998 62.806 100.568 62.2852C100.139 61.7578 99.5885 61.4941 98.918 61.4941C98.2669 61.4941 97.7201 61.7546 97.2773 62.2754C96.8411 62.7897 96.623 63.5612 96.623 64.5898ZM107.027 64.668C107.027 63.7565 107.252 62.8743 107.701 62.0215C108.15 61.1686 108.785 60.5176 109.605 60.0684C110.432 59.6191 111.354 59.3945 112.369 59.3945C113.938 59.3945 115.224 59.9056 116.227 60.9277C117.229 61.9434 117.73 63.2292 117.73 64.7852C117.73 66.3542 117.223 67.6562 116.207 68.6914C115.198 69.7201 113.925 70.2344 112.389 70.2344C111.438 70.2344 110.53 70.0195 109.664 69.5898C108.805 69.1602 108.15 68.5319 107.701 67.7051C107.252 66.8717 107.027 65.8594 107.027 64.668ZM109.84 64.8145C109.84 65.8431 110.084 66.6309 110.572 67.1777C111.061 67.7246 111.663 67.998 112.379 67.998C113.095 67.998 113.694 67.7246 114.176 67.1777C114.664 66.6309 114.908 65.8366 114.908 64.7949C114.908 63.7793 114.664 62.998 114.176 62.4512C113.694 61.9043 113.095 61.6309 112.379 61.6309C111.663 61.6309 111.061 61.9043 110.572 62.4512C110.084 62.998 109.84 63.7858 109.84 64.8145ZM119.922 67.041L122.676 66.6211C122.793 67.1549 123.031 67.5618 123.389 67.8418C123.747 68.1152 124.248 68.252 124.893 68.252C125.602 68.252 126.136 68.1217 126.494 67.8613C126.735 67.679 126.855 67.4349 126.855 67.1289C126.855 66.9206 126.79 66.748 126.66 66.6113C126.523 66.4811 126.217 66.3607 125.742 66.25C123.529 65.7617 122.126 65.3158 121.533 64.9121C120.713 64.3522 120.303 63.5742 120.303 62.5781C120.303 61.6797 120.658 60.9245 121.367 60.3125C122.077 59.7005 123.177 59.3945 124.668 59.3945C126.087 59.3945 127.142 59.6257 127.832 60.0879C128.522 60.5501 128.997 61.2337 129.258 62.1387L126.67 62.6172C126.559 62.2135 126.348 61.9043 126.035 61.6895C125.729 61.4746 125.29 61.3672 124.717 61.3672C123.994 61.3672 123.477 61.4681 123.164 61.6699C122.956 61.8132 122.852 61.9987 122.852 62.2266C122.852 62.4219 122.943 62.5879 123.125 62.7246C123.372 62.9069 124.225 63.1641 125.684 63.4961C127.148 63.8281 128.171 64.235 128.75 64.7168C129.323 65.2051 129.609 65.8854 129.609 66.7578C129.609 67.7083 129.212 68.5254 128.418 69.209C127.624 69.8926 126.449 70.2344 124.893 70.2344C123.48 70.2344 122.36 69.9479 121.533 69.375C120.713 68.8021 120.176 68.0241 119.922 67.041ZM139.568 70V55.6836H143.895L146.492 65.4492L149.061 55.6836H153.396V70H150.711V58.7305L147.869 70H145.086L142.254 58.7305V70H139.568ZM164.074 70V68.4473C163.697 69.0007 163.199 69.4368 162.58 69.7559C161.968 70.0749 161.32 70.2344 160.637 70.2344C159.94 70.2344 159.315 70.0814 158.762 69.7754C158.208 69.4694 157.808 69.0397 157.561 68.4863C157.313 67.9329 157.189 67.168 157.189 66.1914V59.6289H159.934V64.3945C159.934 65.8529 159.982 66.748 160.08 67.0801C160.184 67.4056 160.37 67.666 160.637 67.8613C160.904 68.0501 161.242 68.1445 161.652 68.1445C162.121 68.1445 162.541 68.0176 162.912 67.7637C163.283 67.5033 163.537 67.1842 163.674 66.8066C163.811 66.4225 163.879 65.4883 163.879 64.0039V59.6289H166.623V70H164.074ZM179.908 70H177.164V64.707C177.164 63.5872 177.105 62.8646 176.988 62.5391C176.871 62.207 176.679 61.9499 176.412 61.7676C176.152 61.5853 175.836 61.4941 175.465 61.4941C174.99 61.4941 174.563 61.6243 174.186 61.8848C173.808 62.1452 173.548 62.4902 173.404 62.9199C173.268 63.3496 173.199 64.1439 173.199 65.3027V70H170.455V59.6289H173.004V61.1523C173.909 59.9805 175.048 59.3945 176.422 59.3945C177.027 59.3945 177.581 59.5052 178.082 59.7266C178.583 59.9414 178.961 60.2181 179.215 60.5566C179.475 60.8952 179.654 61.2793 179.752 61.709C179.856 62.1387 179.908 62.7539 179.908 63.5547V70ZM183.701 58.2227V55.6836H186.445V58.2227H183.701ZM183.701 70V59.6289H186.445V70H183.701ZM199.311 62.6953L196.605 63.1836C196.514 62.6432 196.306 62.2363 195.98 61.9629C195.661 61.6895 195.245 61.5527 194.73 61.5527C194.047 61.5527 193.5 61.7904 193.09 62.2656C192.686 62.7344 192.484 63.5221 192.484 64.6289C192.484 65.8594 192.689 66.7285 193.1 67.2363C193.516 67.7441 194.073 67.998 194.77 67.998C195.29 67.998 195.717 67.8516 196.049 67.5586C196.381 67.2591 196.615 66.748 196.752 66.0254L199.447 66.4844C199.167 67.7214 198.63 68.6556 197.836 69.2871C197.042 69.9186 195.977 70.2344 194.643 70.2344C193.126 70.2344 191.915 69.7559 191.01 68.7988C190.111 67.8418 189.662 66.5169 189.662 64.8242C189.662 63.112 190.115 61.7806 191.02 60.8301C191.924 59.873 193.148 59.3945 194.691 59.3945C195.954 59.3945 196.957 59.668 197.699 60.2148C198.448 60.7552 198.985 61.582 199.311 62.6953ZM202.4 70V59.6289H205.145V70H202.4ZM202.195 58.3594L203.543 55.4395H206.619L203.934 58.3594H202.195ZM208.889 59.6289H211.447V61.1523C211.779 60.6315 212.229 60.2083 212.795 59.8828C213.361 59.5573 213.99 59.3945 214.68 59.3945C215.884 59.3945 216.906 59.8665 217.746 60.8105C218.586 61.7546 219.006 63.0697 219.006 64.7559C219.006 66.4876 218.583 67.8353 217.736 68.7988C216.89 69.7559 215.865 70.2344 214.66 70.2344C214.087 70.2344 213.566 70.1204 213.098 69.8926C212.635 69.6647 212.147 69.2741 211.633 68.7207V73.9453H208.889V59.6289ZM211.604 64.6387C211.604 65.804 211.835 66.6667 212.297 67.2266C212.759 67.7799 213.322 68.0566 213.986 68.0566C214.624 68.0566 215.155 67.8027 215.578 67.2949C216.001 66.7806 216.213 65.9408 216.213 64.7754C216.213 63.6882 215.995 62.8809 215.559 62.3535C215.122 61.8262 214.582 61.5625 213.938 61.5625C213.267 61.5625 212.71 61.8229 212.268 62.3438C211.825 62.8581 211.604 63.623 211.604 64.6387ZM222.193 58.2227V55.6836H224.938V58.2227H222.193ZM222.193 70V59.6289H224.938V70H222.193ZM228.125 64.668C228.125 63.7565 228.35 62.8743 228.799 62.0215C229.248 61.1686 229.883 60.5176 230.703 60.0684C231.53 59.6191 232.451 59.3945 233.467 59.3945C235.036 59.3945 236.322 59.9056 237.324 60.9277C238.327 61.9434 238.828 63.2292 238.828 64.7852C238.828 66.3542 238.32 67.6562 237.305 68.6914C236.296 69.7201 235.023 70.2344 233.486 70.2344C232.536 70.2344 231.628 70.0195 230.762 69.5898C229.902 69.1602 229.248 68.5319 228.799 67.7051C228.35 66.8717 228.125 65.8594 228.125 64.668ZM230.938 64.8145C230.938 65.8431 231.182 66.6309 231.67 67.1777C232.158 67.7246 232.76 67.998 233.477 67.998C234.193 67.998 234.792 67.7246 235.273 67.1777C235.762 66.6309 236.006 65.8366 236.006 64.7949C236.006 63.7793 235.762 62.998 235.273 62.4512C234.792 61.9043 234.193 61.6309 233.477 61.6309C232.76 61.6309 232.158 61.9043 231.67 62.4512C231.182 62.998 230.938 63.7858 230.938 64.8145ZM241.02 67.041L243.773 66.6211C243.891 67.1549 244.128 67.5618 244.486 67.8418C244.844 68.1152 245.346 68.252 245.99 68.252C246.7 68.252 247.234 68.1217 247.592 67.8613C247.833 67.679 247.953 67.4349 247.953 67.1289C247.953 66.9206 247.888 66.748 247.758 66.6113C247.621 66.4811 247.315 66.3607 246.84 66.25C244.626 65.7617 243.223 65.3158 242.631 64.9121C241.811 64.3522 241.4 63.5742 241.4 62.5781C241.4 61.6797 241.755 60.9245 242.465 60.3125C243.174 59.7005 244.275 59.3945 245.766 59.3945C247.185 59.3945 248.24 59.6257 248.93 60.0879C249.62 60.5501 250.095 61.2337 250.355 62.1387L247.768 62.6172C247.657 62.2135 247.445 61.9043 247.133 61.6895C246.827 61.4746 246.387 61.3672 245.814 61.3672C245.092 61.3672 244.574 61.4681 244.262 61.6699C244.053 61.8132 243.949 61.9987 243.949 62.2266C243.949 62.4219 244.04 62.5879 244.223 62.7246C244.47 62.9069 245.323 63.1641 246.781 63.4961C248.246 63.8281 249.268 64.235 249.848 64.7168C250.421 65.2051 250.707 65.8854 250.707 66.7578C250.707 67.7083 250.31 68.5254 249.516 69.209C248.721 69.8926 247.546 70.2344 245.99 70.2344C244.577 70.2344 243.458 69.9479 242.631 69.375C241.811 68.8021 241.273 68.0241 241.02 67.041Z" fill="#0E5EAA"/>
<defs>
<linearGradient id="paint0_linear_1681_2578" x1="18.3094" y1="43.1991" x2="50.8701" y2="12.3885" gradientUnits="userSpaceOnUse">
<stop stop-color="#2E348D"/>
<stop offset="0.255936" stop-color="#0D77BA"/>
<stop offset="0.500739" stop-color="#8DC8EC"/>
<stop offset="0.777845" stop-color="#0D77BA"/>
<stop offset="1" stop-color="#2E348D"/>
</linearGradient>
<linearGradient id="paint1_linear_1681_2578" x1="26.1195" y1="15.5861" x2="57.7193" y2="46.1075" gradientUnits="userSpaceOnUse">
<stop stop-color="#2E348D"/>
<stop offset="0.255936" stop-color="#0D77BA"/>
<stop offset="0.500739" stop-color="#8DC8EC"/>
<stop offset="0.777845" stop-color="#0D77BA"/>
<stop offset="1" stop-color="#2E348D"/>
</linearGradient>
<linearGradient id="paint2_linear_1681_2578" x1="63.8824" y1="17.8102" x2="38.3945" y2="52.7697" gradientUnits="userSpaceOnUse">
<stop stop-color="#2E348D"/>
<stop offset="0.255936" stop-color="#0D77BA"/>
<stop offset="0.500739" stop-color="#8DC8EC"/>
<stop offset="0.777845" stop-color="#0D77BA"/>
<stop offset="1" stop-color="#2E348D"/>
</linearGradient>
<linearGradient id="paint3_linear_1681_2578" x1="18.2879" y1="84.5465" x2="63.281" y2="83.0919" gradientUnits="userSpaceOnUse">
<stop stop-color="#2E348D"/>
<stop offset="0.255936" stop-color="#0D77BA"/>
<stop offset="0.500739" stop-color="#8DC8EC"/>
<stop offset="0.777845" stop-color="#0D77BA"/>
<stop offset="1" stop-color="#2E348D"/>
</linearGradient>
<linearGradient id="paint4_linear_1681_2578" x1="-11.4366" y1="38.2269" x2="12.9307" y2="73.4823" gradientUnits="userSpaceOnUse">
<stop stop-color="#2E348D"/>
<stop offset="0.255936" stop-color="#0D77BA"/>
<stop offset="0.500739" stop-color="#8DC8EC"/>
<stop offset="0.777845" stop-color="#0D77BA"/>
<stop offset="1" stop-color="#2E348D"/>
</linearGradient>
<linearGradient id="paint5_linear_1681_2578" x1="47.4489" y1="23.4576" x2="24.4306" y2="32.977" gradientUnits="userSpaceOnUse">
<stop stop-color="#A4C854"/>
<stop offset="0.503861" stop-color="#009B57"/>
<stop offset="1" stop-color="#206E49"/>
</linearGradient>
<linearGradient id="paint6_linear_1681_2578" x1="27.2049" y1="43.9097" x2="43.2933" y2="51.7178" gradientUnits="userSpaceOnUse">
<stop stop-color="#FEE64A"/>
<stop offset="0.622697" stop-color="#FBD247"/>
<stop offset="1" stop-color="#F0AC42"/>
</linearGradient>
</defs>
</svg>
